<svg xmlns="http://www.w3.org/2000/svg" viewBox="0 0 736 174" role="img" aria-label="OLYMPUS creative agency wordmark">
<path d="M30.5185546875 96.97265625Q30.5185546875 80.56640625 35.42578125 69.43359375Q39.087890625 61.23046875 45.42333984375 54.7119140625Q51.7587890625 48.193359375 59.302734375 45.0439453125Q69.3369140625 40.7958984375 82.447265625 40.7958984375Q106.177734375 40.7958984375 120.42333984375 55.517578125Q134.6689453125 70.2392578125 134.6689453125 96.4599609375Q134.6689453125 122.4609375 120.533203125 137.14599609375Q106.3974609375 151.8310546875 82.740234375 151.8310546875Q58.7900390625 151.8310546875 44.654296875 137.21923828125Q30.5185546875 122.607421875 30.5185546875 96.97265625ZM52.857421875 96.240234375Q52.857421875 114.4775390625 61.2802734375 123.88916015625Q69.703125 133.30078125 82.6669921875 133.30078125Q95.630859375 133.30078125 103.94384765625 123.96240234375Q112.2568359375 114.6240234375 112.2568359375 95.947265625Q112.2568359375 77.490234375 104.16357421875 68.408203125Q96.0703125 59.326171875 82.6669921875 59.326171875Q69.263671875 59.326171875 61.060546875 68.51806640625Q52.857421875 77.7099609375 52.857421875 96.240234375Z" fill="#080808"/>
<path d="M146.173828125 150.0V43.505859375H167.853515625V131.9091796875H221.759765625V150.0Z" fill="#080808"/>
<path d="M259.412109375 150.0V104.8095703125L220.0810546875 42.626953125H245.49609375L270.7646484375 85.107421875L295.5205078125 42.626953125H320.49609375L281.0185546875 104.9560546875V150.0Z" fill="#080808"/>
<path d="M324.9697265625 150.0V42.626953125H357.416015625L376.8984375 115.869140625L396.1611328125 42.626953125H428.6806640625V150.0H408.5390625V65.478515625L387.2255859375 150.0H366.3515625L345.111328125 65.478515625V150.0Z" fill="#080808"/>
<path d="M444.2138671875 150.0V42.626953125H479.00390625Q498.779296875 42.626953125 504.78515625 44.23828125Q514.013671875 46.6552734375 520.2392578125 54.74853515625Q526.46484375 62.841796875 526.46484375 75.6591796875Q526.46484375 85.546875 522.8759765625 92.28515625Q519.287109375 99.0234375 513.75732421875 102.86865234375Q508.2275390625 106.7138671875 502.5146484375 107.958984375Q494.7509765625 109.4970703125 480.029296875 109.4970703125H465.8935546875V150.0ZM465.8935546875 60.791015625V91.259765625H477.7587890625Q490.576171875 91.259765625 494.8974609375 89.5751953125Q499.21875 87.890625 501.67236328125 84.3017578125Q504.1259765625 80.712890625 504.1259765625 75.9521484375Q504.1259765625 70.0927734375 500.68359375 66.2841796875Q497.2412109375 62.4755859375 491.9677734375 61.5234375Q488.0859375 60.791015625 476.3671875 60.791015625Z" fill="#080808"/>
<path d="M538.1162109375 42.626953125H559.7958984375V100.78125Q559.7958984375 114.6240234375 560.6015625 118.7255859375Q561.9931640625 125.3173828125 567.22998046875 129.30908203125Q572.466796875 133.30078125 581.548828125 133.30078125Q590.77734375 133.30078125 595.46484375 129.52880859375Q600.15234375 125.7568359375 601.1044921875 120.263671875Q602.056640625 114.7705078125 602.056640625 102.0263671875V42.626953125H623.736328125V99.0234375Q623.736328125 118.359375 621.978515625 126.3427734375Q620.220703125 134.326171875 615.49658203125 139.8193359375Q610.7724609375 145.3125 602.8623046875 148.57177734375Q594.9521484375 151.8310546875 582.2080078125 151.8310546875Q566.8271484375 151.8310546875 558.88037109375 148.27880859375Q550.93359375 144.7265625 546.3193359375 139.05029296875Q541.705078125 133.3740234375 540.240234375 127.1484375Q538.1162109375 117.919921875 538.1162109375 99.90234375Z" fill="#080808"/>
<path d="M635.0947265625 115.0634765625 656.1884765625 113.0126953125Q658.0927734375 123.6328125 663.91552734375 128.61328125Q669.73828125 133.59375 679.6259765625 133.59375Q690.099609375 133.59375 695.40966796875 129.16259765625Q700.7197265625 124.7314453125 700.7197265625 118.798828125Q700.7197265625 114.990234375 698.48583984375 112.31689453125Q696.251953125 109.6435546875 690.685546875 107.666015625Q686.876953125 106.34765625 673.3271484375 102.978515625Q655.8955078125 98.6572265625 648.8642578125 92.3583984375Q638.9765625 83.49609375 638.9765625 70.751953125Q638.9765625 62.548828125 643.62744140625 55.40771484375Q648.2783203125 48.2666015625 657.03076171875 44.53125Q665.783203125 40.7958984375 678.1611328125 40.7958984375Q698.3759765625 40.7958984375 708.59326171875 49.658203125Q718.810546875 58.5205078125 719.3232421875 73.3154296875L697.6435546875 74.267578125Q696.251953125 65.9912109375 691.67431640625 62.36572265625Q687.0966796875 58.740234375 677.94140625 58.740234375Q668.4931640625 58.740234375 663.146484375 62.6220703125Q659.7041015625 65.1123046875 659.7041015625 69.287109375Q659.7041015625 73.095703125 662.9267578125 75.8056640625Q667.0283203125 79.248046875 682.8486328125 82.9833984375Q698.6689453125 86.71875 706.24951171875 90.71044921875Q713.830078125 94.7021484375 718.11474609375 101.62353515625Q722.3994140625 108.544921875 722.3994140625 118.7255859375Q722.3994140625 127.9541015625 717.2724609375 136.0107421875Q712.1455078125 144.0673828125 702.7705078125 147.98583984375Q693.3955078125 151.904296875 679.40625 151.904296875Q659.044921875 151.904296875 648.1318359375 142.49267578125Q637.21875 133.0810546875 635.0947265625 115.0634765625Z" fill="#080808"/><path transform="translate(48 59) scale(0.63)" d="M45 0 10 52h27L22 100 76 37H47L62 0Z" fill="#080808"/>
</svg>
